<svg class="logo one" font-family="AvenirNext forINTUIT" height="250" viewBox="0 0 90 85"
        width="250" xmlns="http://www.w3.org/2000/svg">
    <path style="transform-origin: center center; transform-box: fill-box; fill: rgb(74, 144, 226); transform: rotate(135.331deg); transition: transform 0.5s ease-in-out 0s;"
            d="M21.08,20.2V8.88A11.79,11.79,0,0,1,32.39,20.2Z"></path>
    <path style="transform-origin: center center; transform-box: fill-box; fill: rgb(74, 144, 226); transform: rotate(135.331deg); transition: transform 0.5s ease-in-out 0s;"
            d="M20.18,20.2H8.86A11.8,11.8,0,0,1,20.18,8.88Z"></path>
    <path style="transform-origin: center center; transform-box: fill-box; fill: rgb(74, 144, 226); transform: rotate(135.331deg); transition: transform 0.5s ease-in-out 0s;"
            d="M32.39,21.1A11.78,11.78,0,0,1,21.08,32.41V21.1Z"></path>
    <path style="transform-origin: center center; transform-box: fill-box; fill: rgb(74, 144, 226); transform: rotate(135.331deg); transition: transform 0.5s ease-in-out 0s;"
            d="M20.18,32.41A11.79,11.79,0,0,1,8.86,21.1H20.18Z"></path>
    <path style="transform-origin: center center; transform-box: fill-box; fill: rgb(74, 144, 226); transform: rotate(135.331deg); transition: transform 0.5s ease-in-out 0s;"
            d="M45.41,20.2V8.88A11.79,11.79,0,0,1,56.72,20.2Z"></path>
    <path style="transform-origin: center center; transform-box: fill-box; fill: rgb(74, 144, 226); transform: rotate(135.331deg); transition: transform 0.5s ease-in-out 0s;"
            d="M44.51,20.2H33.2A11.79,11.79,0,0,1,44.51,8.88Z"></path>
    <path style="transform-origin: center center; transform-box: fill-box; fill: rgb(74, 144, 226); transform: rotate(135.331deg); transition: transform 0.5s ease-in-out 0s;"
            d="M56.72,21.1A11.78,11.78,0,0,1,45.41,32.41V21.1Z"></path>
    <path style="transform-origin: center center; transform-box: fill-box; fill: rgb(74, 144, 226); transform: rotate(135.331deg); transition: transform 0.5s ease-in-out 0s;"
            d="M44.51,32.41A11.78,11.78,0,0,1,33.2,21.1H44.51Z"></path>
    <path style="transform-origin: center center; transform-box: fill-box; fill: rgb(74, 144, 226); transform: rotate(135.331deg); transition: transform 0.5s ease-in-out 0s;"
            d="M69.6,20.2V8.88A11.79,11.79,0,0,1,80.91,20.2Z"></path>
    <path style="transform-origin: center center; transform-box: fill-box; fill: rgb(74, 144, 226); transform: rotate(135.331deg); transition: transform 0.5s ease-in-out 0s;"
            d="M68.69,20.2H57.38A11.79,11.79,0,0,1,68.69,8.88Z"></path>
    <path style="transform-origin: center center; transform-box: fill-box; fill: rgb(74, 144, 226); transform: rotate(135.331deg); transition: transform 0.5s ease-in-out 0s;"
            d="M80.91,21.1A11.78,11.78,0,0,1,69.6,32.41V21.1Z"></path>
    <path style="transform-origin: center center; transform-box: fill-box; fill: rgb(74, 144, 226); transform: rotate(135.331deg); transition: transform 0.5s ease-in-out 0s;"
            d="M68.69,32.41A11.78,11.78,0,0,1,57.38,21.1H68.69Z"></path>
    <path style="transform-origin: center center; transform-box: fill-box; fill: rgb(74, 144, 226); transform: rotate(135.331deg); transition: transform 0.5s ease-in-out 0s;"
            d="M21.08, 44.74V33.42A11.79, 11.79, 0,0,1, 32.39, 44.74Z"></path>
    <path style="transform-origin: center center; transform-box: fill-box; fill: rgb(74, 144, 226); transform: rotate(135.331deg); transition: transform 0.5s ease-in-out 0s;"
            d="M20.18, 44.7H8.86A11.8,    11.8,  0,0,1, 20.18, 33.38Z"></path>
    <path style="transform-origin: center center; transform-box: fill-box; fill: rgb(74, 144, 226); transform: rotate(135.331deg); transition: transform 0.5s ease-in-out 0s;"
            d="M32.39, 45.6A11.78,        11.78, 0,0,1, 21.08, 56.91V45.6Z"></path>
    <path style="transform-origin: center center; transform-box: fill-box; fill: rgb(74, 144, 226); transform: rotate(135.331deg); transition: transform 0.5s ease-in-out 0s;"
            d="M20.18, 56.91A11.79,       11.79, 0,0,1, 8.86,  45.6H20.18Z"></path>
    <path style="transform-origin: center center; transform-box: fill-box; fill: rgb(74, 144, 226); transform: rotate(135.331deg); transition: transform 0.5s ease-in-out 0s;"
            d="M69.6,  44.7V33.38A11.79, 11.79, 0,0,1, 80.91, 44.7Z"></path>
    <path style="transform-origin: center center; transform-box: fill-box; fill: rgb(74, 144, 226); transform: rotate(135.331deg); transition: transform 0.5s ease-in-out 0s;"
            d="M68.69, 44.7H57.38A11.79, 11.79, 0,0,1, 68.69, 33.38Z"></path>
    <path style="transform-origin: center center; transform-box: fill-box; fill: rgb(74, 144, 226); transform: rotate(135.331deg); transition: transform 0.5s ease-in-out 0s;"
            d="M80.91, 45.6A11.78,       11.78, 0,0,1, 69.6,  56.91V45.6Z"></path>
    <path style="transform-origin: center center; transform-box: fill-box; fill: rgb(74, 144, 226); transform: rotate(135.331deg); transition: transform 0.5s ease-in-out 0s;"
            d="M68.69, 56.91A11.78,      11.78, 0,0,1, 57.38, 45.6H68.69Z"></path>
    <path style="transform-origin: center center; transform-box: fill-box; fill: rgb(74, 144, 226); transform: rotate(135.331deg); transition: transform 0.5s ease-in-out 0s;"
            d="M21.08,69.24V57.92A11.79,11.79,0,0,1,32.39,69.24Z"></path>
    <path style="transform-origin: center center; transform-box: fill-box; fill: rgb(74, 144, 226); transform: rotate(135.331deg); transition: transform 0.5s ease-in-out 0s;"
            d="M20.18,69.24H8.86A11.8,11.8,0,0,1,20.18,57.92Z"></path>
    <path style="transform-origin: center center; transform-box: fill-box; fill: rgb(74, 144, 226); transform: rotate(135.331deg); transition: transform 0.5s ease-in-out 0s;"
            d="M32.39,70.14A11.78,11.78,0,0,1,21.08,81.45V70.14Z"></path>
    <path style="transform-origin: center center; transform-box: fill-box; fill: rgb(74, 144, 226); transform: rotate(135.331deg); transition: transform 0.5s ease-in-out 0s;"
            d="M20.18,81.45A11.79,11.79,0,0,1,8.86,70.14H20.18Z"></path>
    <path style="transform-origin: center center; transform-box: fill-box; fill: rgb(74, 144, 226); transform: rotate(135.331deg); transition: transform 0.5s ease-in-out 0s;"
            d="M45.41,69.24V57.92A11.79,11.79,0,0,1,56.72,69.24Z"></path>
    <path style="transform-origin: center center; transform-box: fill-box; fill: rgb(74, 144, 226); transform: rotate(135.331deg); transition: transform 0.5s ease-in-out 0s;"
            d="M44.51,69.24H33.2A11.79,11.79,0,0,1,44.51,57.92Z"></path>
    <path style="transform-origin: center center; transform-box: fill-box; fill: rgb(74, 144, 226); transform: rotate(135.331deg); transition: transform 0.5s ease-in-out 0s;"
            d="M56.72,70.14A11.78,11.78,0,0,1,45.41,81.45V70.14Z"></path>
    <path style="transform-origin: center center; transform-box: fill-box; fill: rgb(74, 144, 226); transform: rotate(135.331deg); transition: transform 0.5s ease-in-out 0s;"
            d="M44.51,81.45A11.78,11.78,0,0,1,33.2,70.14H44.51Z"></path>
    <path style="transform-origin: center center; transform-box: fill-box; fill: rgb(74, 144, 226); transform: rotate(135.331deg); transition: transform 0.5s ease-in-out 0s;"
            d="M69.6,69.24V57.92A11.79,11.79,0,0,1,80.91,69.24Z"></path>
    <path style="transform-origin: center center; transform-box: fill-box; fill: rgb(74, 144, 226); transform: rotate(135.331deg); transition: transform 0.5s ease-in-out 0s;"
            d="M68.69,69.24H57.38A11.79,11.79,0,0,1,68.69,57.92Z"></path>
    <path style="transform-origin: center center; transform-box: fill-box; fill: rgb(74, 144, 226); transform: rotate(135.331deg); transition: transform 0.5s ease-in-out 0s;"
            d="M80.91,70.14A11.78,11.78,0,0,1,69.6,81.45V70.14Z"></path>
    <path style="transform-origin: center center; transform-box: fill-box; fill: rgb(74, 144, 226); transform: rotate(135.331deg); transition: transform 0.5s ease-in-out 0s;"
            d="M68.69,81.45A11.78,11.78,0,0,1,57.38,70.14H68.69Z"></path>
</svg>